# Blender 3.6.1
# www.blender.org
mtllib gravestone_small1.mtl
o Gravestone_Small01
v 0.482793 -0.015295 15.190657
v 0.540900 -0.015295 15.252821
v 0.540900 -0.015294 18.642847
v 0.482793 -0.015294 18.705011
v -0.540900 -0.015295 15.252821
v -0.482793 -0.015295 15.190657
v -0.482793 -0.015294 18.705011
v -0.540900 -0.015294 18.642847
v 0.461957 3.235984 15.402061
v 0.412331 3.235984 15.345093
v 0.465437 4.194757 16.262180
v 0.415437 4.249858 16.258904
v 0.465437 3.498394 15.428293
v 0.415437 3.498394 15.370252
v 0.465437 3.742921 15.521682
v 0.415437 3.742921 15.462160
v 0.465437 3.952901 15.670048
v 0.415437 3.952901 15.608365
v 0.465437 4.114025 15.863347
v 0.415437 4.114025 15.798903
v 0.465437 4.194757 17.633486
v 0.415437 4.249858 17.636765
v 0.412331 3.235985 18.550575
v 0.461957 3.235985 18.493607
v 0.415437 4.114025 18.096764
v 0.465437 4.114025 18.032320
v 0.415437 3.952902 18.287302
v 0.465437 3.952902 18.225620
v 0.415437 3.742922 18.433508
v 0.465437 3.742922 18.373985
v 0.415437 3.498394 18.525415
v 0.465437 3.498394 18.467375
v -0.465437 4.194757 16.262180
v -0.415437 4.249858 16.258904
v -0.412331 3.235984 15.345093
v -0.461957 3.235984 15.402061
v -0.415437 4.114025 15.798903
v -0.465437 4.114025 15.863347
v -0.415437 3.952901 15.608365
v -0.465437 3.952901 15.670048
v -0.415437 3.742921 15.462160
v -0.465437 3.742921 15.521682
v -0.415437 3.498394 15.370252
v -0.465437 3.498394 15.428293
v -0.461957 3.235985 18.493607
v -0.412331 3.235985 18.550575
v -0.465437 4.194757 17.633486
v -0.415437 4.249858 17.636765
v -0.465437 3.498394 18.467375
v -0.415437 3.498394 18.525415
v -0.465437 3.742922 18.373985
v -0.415437 3.742922 18.433508
v -0.465437 3.952902 18.225620
v -0.415437 3.952902 18.287302
v -0.465437 4.114025 18.032320
v -0.415437 4.114025 18.096764
v -0.428915 1.610345 15.460838
v -0.382835 1.610345 15.406166
v 0.428915 1.610345 15.460838
v 0.382835 1.610345 15.406166
v 0.382835 1.610345 18.489502
v 0.428915 1.610345 18.434830
v -0.428915 1.610345 18.434830
v -0.382835 1.610345 18.489502
v -0.424798 2.423164 15.460905
v 0.379164 2.423164 15.406166
v 0.424798 2.423165 18.434763
v -0.379164 2.423165 18.489502
v -0.379164 2.423164 15.406166
v 0.424798 2.423164 15.460905
v 0.379164 2.423165 18.489502
v -0.424798 2.423165 18.434763
v -0.418284 0.804016 15.332302
v 0.468622 0.804013 15.389524
v 0.418284 0.804016 18.563366
v -0.468622 0.804014 18.506145
v -0.468622 0.804013 15.389524
v 0.418284 0.804016 15.332302
v 0.468622 0.804014 18.506145
v -0.418284 0.804016 18.563366
vn -0.9405 -0.0312 0.3382
vn -0.9316 -0.0217 0.3628
vn -0.9316 -0.0217 -0.3628
vn -0.9405 -0.0312 -0.3382
vn 0.9316 -0.0217 0.3628
vn 0.9316 -0.0217 -0.3628
vn 0.9258 0.0861 -0.3682
vn 0.9258 0.0861 0.3682
vn 0.9405 -0.0312 -0.3382
vn 0.9405 -0.0312 0.3382
vn 0.9171 0.1973 -0.3464
vn 0.9171 0.1973 0.3464
vn 0.4194 -0.0423 0.9068
vn 0.4121 -0.0011 0.9112
vn -0.4121 -0.0011 0.9112
vn -0.4194 -0.0423 0.9068
vn 0.4012 0.2001 0.8939
vn -0.4012 0.2001 0.8939
vn 0.3207 0.8157 0.4814
vn -0.3207 0.8157 0.4815
vn -0.3581 0.6173 0.7005
vn 0.3581 0.6173 0.7005
vn -0.3863 0.4212 0.8206
vn 0.3863 0.4212 0.8206
vn -0.8662 0.4670 -0.1778
vn -0.8662 0.4670 0.1778
vn -0.9021 0.4274 0.0594
vn -0.9021 0.4274 -0.0594
vn 0.3448 0.9297 0.1293
vn -0.3448 0.9297 0.1293
vn 0.8974 0.3136 0.3102
vn 0.8974 0.3136 -0.3102
vn 0.8662 0.4670 -0.1778
vn 0.8662 0.4670 0.1778
vn 0.9021 0.4274 -0.0594
vn 0.9021 0.4274 0.0594
vn -0.0000 -1.0000 -0.0000
vn -0.4012 0.2001 -0.8939
vn 0.4012 0.2001 -0.8939
vn 0.4121 -0.0011 -0.9112
vn -0.4121 -0.0011 -0.9112
vn -0.3863 0.4212 -0.8206
vn 0.3863 0.4212 -0.8206
vn -0.3581 0.6173 -0.7005
vn 0.3581 0.6173 -0.7005
vn -0.3207 0.8157 -0.4814
vn 0.3207 0.8157 -0.4815
vn 0.3448 0.9297 -0.1293
vn -0.3448 0.9297 -0.1293
vn -0.9258 0.0861 -0.3682
vn -0.9258 0.0861 0.3682
vn -0.9171 0.1973 0.3464
vn -0.9171 0.1973 -0.3464
vn -0.8974 0.3136 0.3102
vn -0.8974 0.3136 -0.3102
vn -0.4194 -0.0423 -0.9068
vn 0.9325 0.1076 -0.3447
vn 0.9134 0.1433 -0.3810
vn 0.3983 0.1874 -0.8979
vn 0.4062 0.1464 -0.9020
vn 0.4062 0.1464 0.9020
vn 0.3983 0.1874 0.8979
vn 0.9134 0.1433 0.3810
vn 0.9325 0.1076 0.3447
vn -0.9325 0.1076 0.3447
vn -0.9134 0.1433 0.3810
vn -0.3983 0.1874 0.8979
vn -0.4062 0.1464 0.9020
vn 0.4194 -0.0423 -0.9068
vn -0.4062 0.1464 -0.9020
vn -0.4195 0.0527 -0.9062
vn 0.4195 0.0527 -0.9062
vn -0.9405 0.0403 0.3375
vn -0.4195 0.0527 0.9062
vn 0.4195 0.0527 0.9062
vn 0.9405 0.0403 0.3375
vn 0.9405 0.0403 -0.3375
vn -0.9325 0.1076 -0.3447
vn -0.9405 0.0403 -0.3375
vn -0.9134 0.1433 -0.3810
vn -0.3983 0.1874 -0.8979
vt 0.531271 0.686448
vt 0.487262 0.676517
vt 0.485768 0.526633
vt 0.530390 0.516604
vt 0.451998 0.799229
vt 0.453743 0.982222
vt 0.438073 0.980606
vt 0.436353 0.801172
vt 0.502207 0.979640
vt 0.500966 0.800863
vt 0.423340 0.975040
vt 0.421741 0.807047
vt 0.519735 0.738353
vt 0.462932 0.727666
vt 0.486237 0.680518
vt 0.530457 0.690541
vt 0.446081 0.718728
vt 0.473376 0.675968
vt 0.406018 0.681352
vt 0.445014 0.653169
vt 0.452622 0.662275
vt 0.417299 0.695230
vt 0.462151 0.669829
vt 0.430725 0.707798
vt 0.445989 0.553908
vt 0.446298 0.649731
vt 0.442546 0.632900
vt 0.442235 0.570562
vt 0.390831 0.648970
vt 0.439037 0.633224
vt 0.409244 0.816432
vt 0.410591 0.965887
vt 0.400929 0.953963
vt 0.399982 0.828500
vt 0.396020 0.931852
vt 0.395292 0.850951
vt 0.712121 0.993232
vt 0.648715 0.977431
vt 0.642210 0.799092
vt 0.712121 0.783130
vt 0.472047 0.527546
vt 0.446650 0.487773
vt 0.462200 0.479592
vt 0.484684 0.522631
vt 0.461168 0.533924
vt 0.431873 0.497708
vt 0.451971 0.541562
vt 0.418556 0.509259
vt 0.444720 0.550558
vt 0.407099 0.522253
vt 0.393238 0.553980
vt 0.438758 0.570246
vt 0.473070 0.531246
vt 0.474298 0.672194
vt 0.462983 0.666153
vt 0.462078 0.537522
vt 0.453498 0.658629
vt 0.452891 0.545119
vt 0.398179 0.823954
vt 0.408125 0.811616
vt 0.421060 0.802307
vt 0.436027 0.796517
vt 0.451930 0.794684
vt 0.399214 0.958556
vt 0.391612 0.932253
vt 0.409577 0.970760
vt 0.422761 0.979800
vt 0.437848 0.985263
vt 0.453766 0.986745
vt 0.529524 0.512467
vt 0.600849 0.979452
vt 0.650333 0.981934
vt 0.601208 0.984352
vt 0.390831 0.850612
vt 0.598206 0.793618
vt 0.643835 0.794577
vt 0.598024 0.798261
vt 0.631514 0.699765
vt 0.683885 0.706893
vt 0.683496 0.712202
vt 0.631130 0.704576
vt 0.517761 0.464180
vt 0.706704 0.779485
vt 0.707755 0.996078
vt 0.631199 0.496861
vt 0.579618 0.504373
vt 0.570813 0.454935
vt 0.620977 0.444070
vt 0.580373 0.693382
vt 0.579858 0.697805
vt 0.500963 0.796560
vt 0.549707 0.796318
vt 0.549755 0.800573
vt 0.551192 0.978774
vt 0.551262 0.983097
vt 0.502297 0.983931
vt 0.631648 0.501684
vt 0.580205 0.508842
vt 0.620870 0.757110
vt 0.571422 0.746258
vt 0.683885 0.493923
vt 0.671233 0.771641
vt 0.683436 0.488620
vt 0.670871 0.429705
s 1
usemtl Gravestone_Small_mtl
f 72/1/1 45/2/2 36/3/3 65/4/4
f 24/5/5 9/6/6 13/7/7 32/8/8
f 70/9/9 9/6/6 24/5/5 67/10/10
f 32/8/8 13/7/7 15/11/11 30/12/12
f 71/13/13 23/14/14 46/15/15 68/16/16
f 31/17/17 50/18/18 46/15/15 23/14/14
f 25/19/19 56/20/20 54/21/21 27/22/22
f 27/22/22 54/21/21 52/23/23 29/24/24
f 29/24/24 52/23/23 50/18/18 31/17/17
f 38/25/25 55/26/26 47/27/27 33/28/28
f 22/29/29 48/30/30 56/20/20 25/19/19
f 28/31/31 17/32/32 19/33/33 26/34/34
f 30/12/12 15/11/11 17/32/32 28/31/31
f 26/34/34 19/33/33 11/35/35 21/36/36
f 5/37/37 2/38/37 3/39/37 8/40/37
f 43/41/38 14/42/39 10/43/40 35/44/41
f 41/45/42 16/46/43 14/42/39 43/41/38
f 39/47/44 18/48/45 16/46/43 41/45/42
f 37/49/46 20/50/47 18/48/45 39/47/44
f 12/51/48 34/52/49 48/30/30 22/29/29
f 44/53/50 49/54/51 51/55/52 42/56/53
f 42/56/53 51/55/52 53/57/54 40/58/55
f 40/58/55 53/57/54 55/26/26 38/25/25
f 36/3/3 45/2/2 49/54/51 44/53/50
f 47/27/27 55/26/26 56/20/20 48/30/30
f 38/25/25 33/28/28 34/52/49 37/49/46
f 28/31/31 26/34/34 25/59/19 27/60/22
f 55/26/26 53/57/54 54/21/21 56/20/20
f 30/12/12 28/31/31 27/60/22 29/61/24
f 53/57/54 51/55/52 52/23/23 54/21/21
f 32/8/8 30/12/12 29/61/24 31/62/17
f 51/55/52 49/54/51 50/18/18 52/23/23
f 24/5/5 32/8/8 31/62/17 23/63/14
f 49/54/51 45/2/2 46/15/15 50/18/18
f 11/35/35 19/33/33 20/64/47 12/65/48
f 12/51/48 20/50/47 37/49/46 34/52/49
f 40/58/55 38/25/25 37/49/46 39/47/44
f 19/33/33 17/32/32 18/66/45 20/64/47
f 42/56/53 40/58/55 39/47/44 41/45/42
f 17/32/32 15/11/11 16/67/43 18/66/45
f 44/53/50 42/56/53 41/45/42 43/41/38
f 15/11/11 13/7/7 14/68/39 16/67/43
f 36/3/3 44/53/50 43/41/38 35/44/41
f 13/7/7 9/6/6 10/69/40 14/68/39
f 65/4/4 36/3/3 35/44/41 69/70/56
f 74/71/57 2/38/58 1/72/59 78/73/60
f 12/65/48 22/74/29 21/36/36 11/35/35
f 75/75/61 4/76/62 3/39/63 79/77/64
f 33/28/28 47/27/27 48/30/30 34/52/49
f 76/78/65 8/79/66 7/80/67 80/81/68
f 69/70/56 35/44/41 10/43/40 66/82/69
f 26/34/34 21/36/36 22/74/29 25/59/19
f 8/40/37 3/39/37 4/76/37 7/83/37
f 2/38/37 5/37/37 6/84/37 1/72/37
f 73/85/70 58/86/71 60/87/72 78/88/60
f 72/1/1 63/89/73 64/90/74 68/16/16
f 71/91/13 61/92/75 62/93/76 67/10/10
f 70/9/9 59/94/77 60/95/72 66/96/69
f 77/97/78 57/98/79 58/86/71 73/85/70
f 75/99/61 61/100/75 64/90/74 80/81/68
f 74/71/57 59/94/77 62/93/76 79/77/64
f 76/78/65 63/89/73 57/98/79 77/97/78
f 9/6/6 70/9/9 66/96/69 10/69/40
f 23/63/14 71/91/13 67/10/10 24/5/5
f 45/2/2 72/1/1 68/16/16 46/15/15
f 58/86/71 69/70/56 66/82/69 60/87/72
f 57/98/79 65/4/4 69/70/56 58/86/71
f 61/100/75 71/13/13 68/16/16 64/90/74
f 59/94/77 70/9/9 67/10/10 62/93/76
f 63/89/73 72/1/1 65/4/4 57/98/79
f 8/79/66 76/78/65 77/97/78 5/101/80
f 2/38/58 74/71/57 79/77/64 3/39/63
f 4/102/62 75/99/61 80/81/68 7/80/67
f 5/101/80 77/97/78 73/85/70 6/103/81
f 6/103/81 73/85/70 78/88/60 1/104/59
f 63/89/73 76/78/65 80/81/68 64/90/74
f 61/92/75 75/75/61 79/77/64 62/93/76
f 59/94/77 74/71/57 78/73/60 60/95/72
