# Blender 3.6.1
# www.blender.org
mtllib gravestone_medium2.mtl
o Gravestone_Medium02
v -0.623802 1.008601 -15.963916
v -0.596809 1.008601 -15.918113
v -0.596809 1.008600 -22.221006
v -0.623802 1.008600 -22.175203
v 0.596809 1.008601 -15.918113
v 0.623802 1.008601 -15.963916
v 0.623802 1.008600 -22.175203
v 0.596809 1.008600 -22.221006
v -0.623802 4.212714 -15.963950
v -0.597260 4.212714 -15.918114
v -0.623802 5.092713 -16.842052
v -0.598013 5.132713 -16.838112
v -0.623802 4.564783 -16.034460
v -0.597584 4.564783 -15.988145
v -0.623802 4.863252 -16.234793
v -0.597807 4.863252 -16.187574
v -0.623802 5.018256 -16.467728
v -0.597946 5.062683 -16.486044
v -0.623802 5.092713 -21.297066
v -0.598013 5.132713 -21.301006
v -0.597260 4.212712 -22.221006
v -0.623802 4.212712 -22.175169
v -0.597946 5.062682 -21.653074
v -0.623802 5.018255 -21.671391
v -0.597807 4.863251 -21.951544
v -0.623802 4.863251 -21.904324
v -0.597584 4.564781 -22.150974
v -0.623802 4.564781 -22.104660
v 0.623802 5.092713 -16.842052
v 0.598013 5.132713 -16.838112
v 0.597260 4.212714 -15.918114
v 0.623802 4.212714 -15.963950
v 0.597946 5.062683 -16.486044
v 0.623802 5.018256 -16.467728
v 0.597807 4.863252 -16.187574
v 0.623802 4.863252 -16.234793
v 0.597584 4.564783 -15.988145
v 0.623802 4.564783 -16.034460
v 0.623802 4.212712 -22.175169
v 0.597260 4.212712 -22.221006
v 0.623802 5.092713 -21.297066
v 0.598013 5.132713 -21.301006
v 0.623802 4.564781 -22.104660
v 0.597584 4.564781 -22.150974
v 0.623802 4.863251 -21.904324
v 0.597807 4.863251 -21.951544
v 0.623802 5.018255 -21.671391
v 0.597946 5.062682 -21.653074
v -1.021188 -0.008114 -22.754089
v -0.993305 -0.008114 -22.798792
v -0.993305 -0.008113 -15.340327
v -1.021188 -0.008113 -15.385030
v -0.780782 0.610262 -22.407135
v -0.752738 0.610262 -22.452549
v -0.752738 0.610263 -15.686570
v -0.780782 0.610263 -15.731984
v 0.752738 0.610262 -22.452549
v 0.780782 0.610262 -22.407135
v 0.780782 0.610263 -15.731984
v 0.752738 0.610263 -15.686570
v 0.993305 -0.008114 -22.798792
v 1.021188 -0.008114 -22.754089
v 1.021188 -0.008113 -15.385030
v 0.993305 -0.008113 -15.340327
v -0.993188 0.570261 -22.798792
v -1.021188 0.570261 -22.753901
v -0.994976 0.610262 -22.715715
v -0.966733 0.610262 -22.761040
v -1.021188 0.570263 -15.385218
v -0.993188 0.570263 -15.340327
v -0.966733 0.610263 -15.378079
v -0.994976 0.610263 -15.423403
v 0.966733 0.610262 -22.761040
v 0.994976 0.610262 -22.715715
v 1.021188 0.570261 -22.753901
v 0.993188 0.570261 -22.798792
v 0.994976 0.610263 -15.423403
v 0.966733 0.610263 -15.378079
v 0.993188 0.570263 -15.340327
v 1.021188 0.570263 -15.385218
v -0.761323 1.008600 -22.378019
v -0.733562 1.008600 -22.423847
v -0.752869 0.978600 -22.452549
v -0.780782 0.978600 -22.407053
v -0.780782 0.978601 -15.732065
v -0.752869 0.978601 -15.686570
v -0.733562 1.008601 -15.715272
v -0.761323 1.008601 -15.761100
v 0.733562 1.008600 -22.423847
v 0.761323 1.008600 -22.378019
v 0.780782 0.978600 -22.407053
v 0.752869 0.978600 -22.452549
v 0.761323 1.008601 -15.761100
v 0.733562 1.008601 -15.715272
v 0.752869 0.978601 -15.686570
v 0.780782 0.978601 -15.732065
v 0.591709 2.076638 -16.045336
v 0.591709 3.144676 -16.045347
v 0.566390 3.144676 -16.000721
v 0.566247 2.076638 -16.000721
v -0.591709 3.144676 -16.045345
v -0.591709 2.076638 -16.045336
v -0.566247 2.076638 -16.000721
v -0.566390 3.144676 -16.000721
v -0.566390 3.144675 -22.138397
v -0.566247 2.076638 -22.138397
v -0.591709 2.076638 -22.093782
v -0.591709 3.144675 -22.093773
v 0.591709 3.144675 -22.093773
v 0.591709 2.076638 -22.093782
v 0.566247 2.076638 -22.138397
v 0.566390 3.144675 -22.138397
vn -0.9518 0.1309 -0.2772
vn -0.9518 0.1309 0.2772
vn -0.9228 0.2971 0.2453
vn -0.9228 0.2971 -0.2453
vn -0.9608 0.0038 -0.2772
vn -0.9608 0.0038 0.2772
vn -0.0000 1.0000 -0.0000
vn -0.2049 0.8970 0.3916
vn 0.2049 0.8970 0.3916
vn 0.2049 0.8970 -0.3916
vn -0.2049 0.8970 -0.3916
vn 0.4836 0.8714 0.0823
vn 0.4836 0.8714 -0.0823
vn -0.4669 0.3285 -0.8211
vn 0.4669 0.3285 -0.8211
vn 0.4867 0.0441 -0.8725
vn -0.4867 0.0441 -0.8725
vn -0.4314 0.6213 -0.6541
vn 0.4314 0.6213 -0.6541
vn 0.9240 0.3376 0.1796
vn 0.9240 0.3376 -0.1796
vn 0.9547 0.2961 -0.0292
vn 0.9547 0.2961 0.0292
vn -0.4368 0.8394 -0.3233
vn 0.4368 0.8394 -0.3233
vn -0.9240 0.3376 -0.1796
vn -0.9240 0.3376 0.1796
vn -0.9547 0.2961 0.0292
vn -0.9547 0.2961 -0.0292
vn -0.4673 0.8798 -0.0867
vn 0.4673 0.8798 -0.0867
vn 0.4673 0.8798 0.0867
vn -0.4673 0.8798 0.0867
vn -0.4368 0.8394 0.3233
vn 0.4368 0.8394 0.3233
vn -0.9676 -0.0240 0.2512
vn -0.9676 -0.0240 -0.2512
vn 0.9608 0.0038 0.2772
vn 0.9608 0.0038 -0.2772
vn 0.9518 0.1309 -0.2772
vn 0.9518 0.1309 0.2772
vn 0.9228 0.2971 -0.2453
vn 0.9228 0.2971 0.2453
vn -0.8927 0.3495 0.2845
vn -0.8927 0.3495 -0.2845
vn -0.9614 0.0001 -0.2753
vn -0.9614 0.0001 0.2753
vn -0.4314 0.6213 0.6541
vn 0.4314 0.6213 0.6541
vn -0.4669 0.3285 0.8210
vn 0.4669 0.3285 0.8210
vn -0.4571 0.3730 -0.8074
vn 0.4571 0.3730 -0.8074
vn 0.4877 -0.0001 -0.8730
vn -0.4877 -0.0001 -0.8730
vn -0.4867 0.0441 0.8725
vn 0.4867 0.0441 0.8725
vn 0.4815 0.8724 0.0845
vn 0.4815 0.8724 -0.0845
vn -0.4554 0.3726 -0.8086
vn 0.4554 0.3726 -0.8086
vn 0.4852 0.0001 -0.8744
vn -0.4852 0.0001 -0.8744
vn 0.9676 -0.0240 -0.2512
vn 0.9676 -0.0240 0.2512
vn 0.2003 0.8966 -0.3949
vn -0.2003 0.8966 -0.3949
vn -0.5036 -0.0412 -0.8630
vn 0.5036 -0.0412 -0.8630
vn -0.0000 -1.0000 -0.0000
vn 0.8927 0.3495 -0.2845
vn 0.8927 0.3495 0.2845
vn 0.9614 0.0001 0.2753
vn 0.9614 0.0001 -0.2753
vn -0.2003 0.8966 0.3949
vn 0.2003 0.8966 0.3949
vn 0.4571 0.3730 0.8074
vn -0.4571 0.3730 0.8074
vn -0.4877 -0.0001 0.8730
vn 0.4877 -0.0001 0.8730
vn -0.8942 0.3480 0.2817
vn -0.8942 0.3481 -0.2817
vn -0.9622 -0.0000 -0.2724
vn -0.9622 -0.0000 0.2724
vn 0.8942 0.3481 -0.2817
vn 0.8942 0.3480 0.2817
vn 0.9622 -0.0000 0.2724
vn 0.9622 -0.0000 -0.2724
vn 0.4554 0.3726 0.8086
vn -0.4554 0.3726 0.8086
vn -0.4852 0.0001 0.8744
vn 0.4852 0.0001 0.8744
vn -0.4815 0.8724 0.0845
vn -0.4815 0.8724 -0.0845
vn -0.4836 0.8714 0.0823
vn -0.4836 0.8714 -0.0823
vn 0.5036 -0.0412 0.8630
vn -0.5036 -0.0412 0.8630
vn -0.9673 0.0240 0.2524
vn -0.9617 0.0493 0.2698
vn -0.4939 0.0813 0.8657
vn -0.5025 0.0412 0.8636
vn -0.5025 0.0412 -0.8636
vn -0.4939 0.0813 -0.8657
vn -0.9617 0.0493 -0.2698
vn -0.9673 0.0240 -0.2524
vn 0.9673 0.0240 -0.2524
vn 0.9617 0.0493 -0.2698
vn 0.4939 0.0813 -0.8657
vn 0.5025 0.0412 -0.8636
vn 0.9617 0.0493 0.2698
vn 0.9673 0.0240 0.2524
vn 0.5025 0.0412 0.8636
vn 0.4939 0.0813 0.8657
vt 0.704022 0.093522
vt 0.706226 0.295804
vt 0.696480 0.288289
vt 0.694595 0.101231
vt 0.715724 0.087935
vt 0.718152 0.301041
vt 0.619172 0.529934
vt 0.609505 0.581980
vt 0.600216 0.582315
vt 0.611052 0.525738
vt 0.783375 0.716396
vt 0.831121 0.691068
vt 0.841258 0.696674
vt 0.785105 0.725245
vt 0.840268 0.471580
vt 0.620812 0.528586
vt 0.612939 0.524588
vt 0.846786 0.464087
vt 0.703579 0.091699
vt 0.672608 0.055078
vt 0.686960 0.044936
vt 0.715131 0.085992
vt 0.694265 0.099479
vt 0.659136 0.067114
vt 0.010589 0.765409
vt 0.010819 0.971156
vt 0.007299 0.952810
vt 0.007115 0.783923
vt 0.687643 0.109383
vt 0.647365 0.081092
vt 0.689511 0.108917
vt 0.691166 0.280582
vt 0.688057 0.265801
vt 0.686729 0.123148
vt 0.684552 0.122954
vt 0.637564 0.096798
vt 0.637887 0.291429
vt 0.685802 0.266044
vt 0.689235 0.280135
vt 0.647198 0.307701
vt 0.757836 0.311896
vt 0.755884 0.077587
vt 0.043363 0.744037
vt 0.043668 0.992389
vt 0.029418 0.989297
vt 0.029116 0.747183
vt 0.017245 0.980766
vt 0.017004 0.755760
vt 0.289399 0.603656
vt 0.482215 0.768860
vt 0.479472 0.796074
vt 0.262901 0.611886
vt 0.696187 0.290073
vt 0.658490 0.322950
vt 0.705838 0.297654
vt 0.671990 0.336481
vt 0.785278 0.727229
vt 0.843024 0.698071
vt 0.850427 0.714123
vt 0.784829 0.744404
vt 0.717579 0.302979
vt 0.687394 0.348051
vt 0.558407 0.484932
vt 0.322003 0.534303
vt 0.310696 0.527401
vt 0.568754 0.473923
vt 0.484628 0.769317
vt 0.562491 0.735062
vt 0.572687 0.761358
vt 0.482361 0.796361
vt 0.086606 0.990160
vt 0.086637 0.746185
vt 0.482965 0.753313
vt 0.544822 0.723884
vt 0.560222 0.733115
vt 0.484595 0.766622
vt 0.755366 0.075554
vt 0.739181 0.024816
vt 0.940862 0.444824
vt 0.941989 0.446631
vt 0.859436 0.446631
vt 0.860563 0.444825
vt 0.570031 0.470655
vt 0.308462 0.525156
vt 0.285977 0.506248
vt 0.568334 0.445005
vt 0.320359 0.535511
vt 0.305065 0.600885
vt 0.291218 0.600892
vt 0.308768 0.528435
vt 0.609397 0.524709
vt 0.598189 0.582705
vt 0.581697 0.588272
vt 0.594516 0.513790
vt 0.599210 0.584948
vt 0.782886 0.726884
vt 0.781859 0.744244
vt 0.582711 0.591104
vt 0.847675 0.461498
vt 0.611116 0.522939
vt 0.596514 0.511290
vt 0.845925 0.445125
vt 0.306655 0.526898
vt 0.288498 0.601339
vt 0.262049 0.609068
vt 0.283959 0.508632
vt 0.292420 0.602786
vt 0.482614 0.765746
vt 0.305824 0.602795
vt 0.481031 0.752793
vt 0.601529 0.584156
vt 0.783066 0.724466
vt 0.742092 0.363958
vt 0.757324 0.313902
vt 0.008421 0.970504
vt 0.004709 0.953045
vt 0.016913 0.983000
vt 0.029248 0.991495
vt 0.043622 0.994535
vt 0.004505 0.783704
vt 0.008178 0.766074
vt 0.016663 0.753527
vt 0.028937 0.744986
vt 0.043311 0.741883
vt 0.086629 0.744105
vt 0.801601 0.319991
vt 0.847394 0.326576
vt 0.847188 0.328841
vt 0.801303 0.322145
vt 0.800294 0.066636
vt 0.847159 0.059253
vt 0.847394 0.061569
vt 0.800624 0.068836
vt 0.129725 0.990345
vt 0.172881 0.993350
vt 0.172839 0.995495
vt 0.129701 0.992419
vt 0.572687 0.470816
vt 0.571492 0.474220
vt 0.560489 0.485721
vt 0.570702 0.444824
vt 0.850427 0.461587
vt 0.849598 0.464196
vt 0.610385 0.583911
vt 0.781339 0.715971
vt 0.848354 0.444824
vt 0.842418 0.472245
vt 0.086602 0.992230
vt 0.172881 0.742884
vt 0.129827 0.745927
vt 0.129801 0.743853
vt 0.172837 0.740744
vt 0.838778 0.381727
vt 0.791530 0.372826
vt 0.789708 0.014348
vt 0.837943 0.004505
vt 0.941989 0.744487
vt 0.859436 0.744487
vt 0.940862 0.746294
vt 0.860563 0.746294
s 1
usemtl Gravestone_Medium_mtl
f 28/1/1 13/2/2 15/3/3 26/4/4
f 22/5/5 9/6/6 13/2/2 28/1/1
f 5/7/7 2/8/7 87/9/8 94/10/9
f 3/11/7 8/12/7 89/13/10 82/14/11
f 7/15/7 6/16/7 93/17/12 90/18/13
f 27/19/14 44/20/15 40/21/16 21/22/17
f 25/23/18 46/24/19 44/20/15 27/19/14
f 34/25/20 47/26/21 41/27/22 29/28/23
f 23/29/24 48/30/25 46/24/19 25/23/18
f 24/31/26 17/32/27 11/33/28 19/34/29
f 20/35/30 42/36/31 48/30/25 23/29/24
f 26/4/4 15/3/3 17/32/27 24/31/26
f 30/37/32 12/38/33 18/39/34 33/40/35
f 101/41/36 9/6/6 22/5/5 108/42/37
f 32/43/38 39/44/39 43/45/40 38/46/41
f 38/46/41 43/45/40 45/47/42 36/48/43
f 69/49/44 66/50/45 49/51/46 52/52/47
f 36/48/43 45/47/42 47/26/21 34/25/20
f 42/36/31 20/35/30 12/38/33 30/37/32
f 33/40/35 18/39/34 16/53/48 35/54/49
f 35/54/49 16/53/48 14/55/50 37/56/51
f 83/57/52 92/58/53 57/59/54 54/60/55
f 37/56/51 14/55/50 10/61/56 31/62/57
f 58/63/7 59/64/7 77/65/58 74/66/59
f 65/67/60 76/68/61 61/69/62 50/70/63
f 109/71/64 39/44/39 32/43/38 98/72/65
f 54/73/7 57/74/7 73/75/66 68/76/67
f 105/77/68 21/22/17 40/21/16 112/78/69
f 51/79/70 52/80/70 63/81/70 64/82/70
f 75/83/71 80/84/72 63/85/73 62/86/74
f 76/68/61 65/67/60 68/76/67 73/75/66
f 60/87/7 55/88/7 71/89/75 78/90/76
f 95/91/77 86/92/78 55/93/79 60/94/80
f 85/95/81 84/96/82 53/97/83 56/98/84
f 91/99/85 96/100/86 59/101/87 58/102/88
f 79/103/89 70/104/90 51/105/91 64/106/92
f 66/50/45 69/49/44 72/107/93 67/108/94
f 70/104/90 79/103/89 78/90/76 71/89/75
f 92/58/53 83/57/52 82/14/11 89/13/10
f 80/84/72 75/83/71 74/66/59 77/65/58
f 56/109/7 53/110/7 67/108/94 72/107/93
f 86/92/78 95/91/77 94/10/9 87/9/8
f 84/96/82 85/95/81 88/111/95 81/112/96
f 96/100/86 91/99/85 90/18/13 93/17/12
f 99/113/97 31/62/57 10/61/56 104/114/98
f 24/31/26 19/34/29 20/35/30 23/29/24
f 41/27/22 47/26/21 48/115/25 42/116/31
f 26/4/4 24/31/26 23/29/24 25/23/18
f 47/26/21 45/47/42 46/117/19 48/115/25
f 28/1/1 26/4/4 25/23/18 27/19/14
f 45/47/42 43/45/40 44/118/15 46/117/19
f 22/5/5 28/1/1 27/19/14 21/22/17
f 43/45/40 39/44/39 40/119/16 44/118/15
f 34/25/20 29/28/23 30/120/32 33/121/35
f 11/33/28 17/32/27 18/39/34 12/38/33
f 36/48/43 34/25/20 33/121/35 35/122/49
f 17/32/27 15/3/3 16/53/48 18/39/34
f 38/46/41 36/48/43 35/122/49 37/123/51
f 15/3/3 13/2/2 14/55/50 16/53/48
f 32/43/38 38/46/41 37/123/51 31/124/57
f 13/2/2 9/6/6 10/61/56 14/55/50
f 98/72/65 32/43/38 31/124/57 99/125/97
f 102/126/99 1/127/100 2/128/101 103/129/102
f 12/38/33 20/35/30 19/34/29 11/33/28
f 106/130/103 3/131/104 4/132/105 107/133/106
f 29/28/23 41/27/22 42/116/31 30/120/32
f 110/134/107 7/135/108 8/136/109 111/137/110
f 74/66/59 75/83/71 76/138/61 73/139/66
f 66/50/45 67/108/94 68/76/67 65/67/60
f 70/104/90 71/89/75 72/107/93 69/49/44
f 78/90/76 79/103/89 80/84/72 77/65/58
f 67/108/94 53/110/7 54/73/7 68/76/67
f 58/63/7 74/66/59 73/139/66 57/140/7
f 49/51/46 66/50/45 65/67/60 50/70/63
f 75/83/71 62/86/74 61/141/62 76/138/61
f 71/89/75 55/88/7 56/109/7 72/107/93
f 51/105/91 70/104/90 69/49/44 52/52/47
f 63/85/73 80/84/72 79/103/89 64/106/92
f 77/65/58 59/64/7 60/87/7 78/90/76
f 82/14/11 83/57/52 84/96/82 81/112/96
f 86/92/78 87/9/8 88/111/95 85/95/81
f 90/18/13 91/99/85 92/142/53 89/143/10
f 94/10/9 95/91/77 96/100/86 93/17/12
f 87/9/8 2/8/7 1/144/7 88/111/95
f 3/11/7 82/14/11 81/112/96 4/145/7
f 53/97/83 84/96/82 83/57/52 54/60/55
f 91/99/85 58/102/88 57/146/54 92/142/53
f 55/93/79 86/92/78 85/95/81 56/98/84
f 7/15/7 90/18/13 89/143/10 8/147/7
f 93/17/12 6/16/7 5/7/7 94/10/9
f 59/101/87 96/100/86 95/91/77 60/94/80
f 1/144/7 4/145/7 81/112/96 88/111/95
f 39/44/39 109/71/64 112/148/69 40/119/16
f 109/71/64 110/134/107 111/137/110 112/148/69
f 21/22/17 105/77/68 108/42/37 22/5/5
f 105/77/68 106/130/103 107/133/106 108/42/37
f 9/6/6 101/41/36 104/114/98 10/61/56
f 101/41/36 102/126/99 103/129/102 104/114/98
f 6/149/111 97/150/112 100/151/113 5/152/114
f 97/150/112 98/72/65 99/125/97 100/151/113
f 5/153/114 100/154/113 103/129/102 2/128/101
f 100/154/113 99/113/97 104/114/98 103/129/102
f 3/131/104 106/130/103 111/155/110 8/156/109
f 106/130/103 105/77/68 112/78/69 111/155/110
f 7/135/108 110/134/107 97/150/112 6/149/111
f 110/134/107 109/71/64 98/72/65 97/150/112
f 1/127/100 102/126/99 107/133/106 4/132/105
f 102/126/99 101/41/36 108/42/37 107/133/106
f 63/81/70 52/80/70 49/157/70 62/158/70
f 62/158/70 49/157/70 50/159/70 61/160/70
